<svg width="115" height="78" viewBox="0 0 115 78" fill="none" xmlns="http://www.w3.org/2000/svg">
<path d="M0.16847 60V1.74399H26.3045C30.8805 1.74399 34.4885 2.536 37.1285 4.12C39.8271 5.704 41.7631 7.69866 42.9365 10.104C44.1098 12.4507 44.6965 14.7973 44.6965 17.144C44.6965 20.8987 43.9045 23.8027 42.3205 25.856C40.7365 27.8507 38.9178 29.3173 36.8645 30.256C38.5071 30.784 40.1498 31.6347 41.7925 32.808C43.4938 33.9227 44.9018 35.448 46.0165 37.384C47.1311 39.32 47.6885 41.7547 47.6885 44.688C47.6885 49.0293 46.0165 52.6667 42.6725 55.6C39.3871 58.5333 34.4298 60 27.8005 60H0.16847ZM6.76847 27.792H26.3045C28.3578 27.792 30.2645 27.44 32.0245 26.736C33.8431 26.032 35.3098 24.9467 36.4245 23.48C37.5391 21.9547 38.0965 20.0187 38.0965 17.672C38.0965 16.0293 37.7151 14.4747 36.9525 13.008C36.2485 11.5413 35.0751 10.3387 33.4325 9.4C31.8485 8.46133 29.7071 7.992 27.0085 7.992H6.76847V27.792ZM6.76847 53.752H28.5045C32.4938 53.752 35.5738 52.9307 37.7445 51.288C39.9738 49.5867 41.0885 47.2107 41.0885 44.16C41.0885 41.4027 40.0325 38.9973 37.9205 36.944C35.8085 34.832 32.4351 33.776 27.8005 33.776H6.76847V53.752ZM54.5621 77.424L62.5701 59.384L44.6181 16H51.9221L66.0901 52.08L80.5221 16H87.7381L61.6901 77.424H54.5621ZM91.4403 60V21.808H82.4643V16H91.4403V0.247998H98.0403V16H108.16V21.808H98.0403V60H91.4403ZM105.749 60V51.024H114.285V60H105.749Z" fill="#FAFAFA"/>
</svg>
