<svg width="24" height="25" viewBox="0 0 24 25" fill="none" xmlns="http://www.w3.org/2000/svg">
<path d="M12 0.804688C5.38398 0.804688 0 6.18866 0 12.8047C0 19.4207 5.38398 24.8047 12 24.8047C18.616 24.8047 24 19.4207 24 12.8047C24 6.18866 18.616 0.804688 12 0.804688ZM12 22.9585C6.40158 22.9585 1.84615 18.4031 1.84615 12.8047C1.84615 7.20626 6.40158 2.65084 12 2.65084C17.5984 2.65084 22.1538 7.20626 22.1538 12.8047C22.1538 18.4031 17.5984 22.9585 12 22.9585Z" fill="black"/>
<path d="M15.7292 9.07568C15.3692 8.71566 14.7842 8.71566 14.4242 9.07568L12 11.4999L9.57575 9.07568C9.21574 8.71566 8.63076 8.71566 8.27074 9.07568C7.91073 9.43569 7.91073 10.0207 8.27074 10.3807L10.695 12.8049L8.27074 15.2291C7.91073 15.5891 7.91073 16.1741 8.27074 16.5341C8.45075 16.7141 8.68729 16.8041 8.92381 16.8041C9.16035 16.8041 9.39575 16.7141 9.57687 16.5341L12.0011 14.1099L14.4253 16.5341C14.6053 16.7141 14.8419 16.8041 15.0784 16.8041C15.3149 16.8041 15.5503 16.7141 15.7315 16.5341C16.0915 16.1741 16.0915 15.5891 15.7315 15.2291L13.3072 12.8049L15.7315 10.3807C16.0915 10.0207 16.0915 9.43569 15.7315 9.07568H15.7292Z" fill="black"/>
</svg>
