<svg width="400" height="349" viewBox="0 0 400 349" fill="none" xmlns="http://www.w3.org/2000/svg">
<rect x="0.5" y="29.5" width="399" height="319" rx="3.5" fill="white" stroke="black"/>
<path d="M0 4C0 1.79086 1.79086 0 4 0H396C398.209 0 400 1.79086 400 4V32H0V4Z" fill="#1A3242"/>
<circle cx="24" cy="16" r="6" fill="#FF4427"/>
<circle cx="40" cy="16" r="6" fill="#FFB027"/>
<circle cx="56" cy="16" r="6" fill="#50FF8A"/>
<rect x="227" y="183" width="32" height="32" rx="2" fill="#FF9797"/>
<rect x="263" y="183" width="32" height="32" rx="2" fill="#FC7676"/>
<rect x="299" y="183" width="32" height="32" rx="2" fill="#FD4545"/>
<rect x="335" y="183" width="32" height="32" rx="2" fill="#E90000"/>
<rect x="227" y="219" width="32" height="32" rx="2" fill="#84D2FF"/>
<rect x="263" y="219" width="32" height="32" rx="2" fill="#53C0FF"/>
<rect x="299" y="219" width="32" height="32" rx="2" fill="#2EB2FF"/>
<rect x="335" y="219" width="32" height="32" rx="2" fill="#00A1FF"/>
<rect x="227" y="255" width="32" height="32" rx="2" fill="#99FFAD"/>
<rect x="263" y="255" width="32" height="32" rx="2" fill="#66FF85"/>
<rect x="299" y="255" width="32" height="32" rx="2" fill="#20FA4C"/>
<rect x="335" y="255" width="32" height="32" rx="2" fill="#00F230"/>
<path d="M262.164 166.83L257.8 171.193L257.243 170.636C257.135 170.528 256.989 170.467 256.836 170.467C256.683 170.467 256.536 170.528 256.428 170.636C256.32 170.744 256.26 170.891 256.26 171.044C256.26 171.196 256.32 171.343 256.428 171.451L256.986 172.008L245.844 183.149C244.614 184.378 243.761 185.932 243.385 187.629L243.014 189.299C242.993 189.393 242.996 189.492 243.023 189.585C243.05 189.678 243.1 189.763 243.169 189.831C243.237 189.9 243.322 189.95 243.415 189.977C243.508 190.004 243.607 190.007 243.701 189.986L245.371 189.615C247.068 189.239 248.622 188.385 249.851 187.156L260.992 176.014L261.549 176.572C261.657 176.68 261.804 176.74 261.957 176.74C262.109 176.74 262.256 176.68 262.364 176.572C262.472 176.464 262.533 176.317 262.533 176.164C262.533 176.011 262.472 175.865 262.364 175.757L261.807 175.2L266.17 170.836C266.701 170.305 267 169.584 267 168.833C267 168.082 266.701 167.361 266.17 166.83C265.639 166.298 264.918 166 264.167 166C263.416 166 262.695 166.298 262.164 166.83L262.164 166.83ZM249.036 186.341C247.962 187.416 246.604 188.162 245.121 188.491L244.335 188.665L244.51 187.88C244.78 186.661 245.333 185.524 246.123 184.558H250.819L249.036 186.341ZM251.972 183.406H247.218L257.8 172.823L260.177 175.2L251.972 183.406ZM265.356 170.022L260.992 174.385L258.615 172.008L262.979 167.645C263.294 167.329 263.721 167.152 264.167 167.152C264.613 167.152 265.04 167.329 265.356 167.645C265.671 167.96 265.848 168.387 265.848 168.833C265.848 169.279 265.671 169.706 265.356 170.022Z" fill="#3A3A3A"/>
<path d="M70.0612 268L77.9823 241.47H82.7577L90.6788 268H86.3203L84.539 261.633H76.201L74.4197 268H70.0612ZM80.2563 247.155L77.1106 258.411H83.6294L80.4837 247.155H80.2563ZM101.39 268.455C99.899 268.455 98.6483 268.202 97.6376 267.697C96.6269 267.166 95.8689 266.471 95.3636 265.612C94.8583 264.728 94.6056 263.768 94.6056 262.732C94.6056 260.887 95.2752 259.447 96.6143 258.411C97.9787 257.375 99.899 256.857 102.375 256.857H107.226V256.44C107.226 253.611 105.912 252.196 103.285 252.196C102.198 252.196 101.276 252.436 100.518 252.916C99.7853 253.371 99.2926 254.116 99.0399 255.152H95.0225C95.2246 253.181 96.0711 251.627 97.5618 250.49C99.0778 249.328 100.985 248.747 103.285 248.747C106.064 248.747 108.085 249.429 109.349 250.793C110.612 252.158 111.244 254.04 111.244 256.44V268H107.833L107.492 265.233H107.226C106.67 266.118 105.976 266.876 105.142 267.507C104.308 268.139 103.057 268.455 101.39 268.455ZM102.148 265.082C103.79 265.082 105.015 264.589 105.824 263.604C106.658 262.593 107.113 261.317 107.188 259.776H102.792C101.352 259.776 100.328 260.016 99.7221 260.496C99.141 260.951 98.8504 261.595 98.8504 262.429C98.8504 263.262 99.141 263.919 99.7221 264.399C100.328 264.854 101.137 265.082 102.148 265.082Z" fill="black"/>
<rect x="42.5" y="206.5" width="99" height="99" stroke="#ED6B4E"/>
<rect x="34" y="198" width="16" height="16" fill="#ED6B4E"/>
<rect x="34" y="251" width="16" height="16" fill="#ED6B4E"/>
<rect x="34" y="298" width="16" height="16" fill="#ED6B4E"/>
<rect x="84" y="198" width="16" height="16" fill="#ED6B4E"/>
<rect x="84" y="298" width="16" height="16" fill="#ED6B4E"/>
<rect x="134" y="198" width="16" height="16" fill="#ED6B4E"/>
<rect x="134" y="251" width="16" height="16" fill="#ED6B4E"/>
<rect x="134" y="298" width="16" height="16" fill="#ED6B4E"/>
<path d="M148.91 203.862L165.17 210.822C166.368 211.335 166.229 213.077 164.965 213.393L158.083 215.118L156.3 221.986C155.973 223.247 154.229 223.37 153.727 222.168L146.905 205.85C146.377 204.587 147.652 203.323 148.91 203.862ZM145.734 202.664C145.867 202.532 145.868 202.318 145.736 202.186L144.471 200.909C144.339 200.777 144.125 200.776 143.992 200.907C143.86 201.039 143.859 201.253 143.99 201.386L145.256 202.662C145.321 202.728 145.407 202.761 145.494 202.762C145.58 202.762 145.667 202.729 145.734 202.664ZM144.431 210.323L145.707 209.057C145.84 208.926 145.841 208.712 145.709 208.579C145.577 208.446 145.364 208.445 145.231 208.577L143.954 209.843C143.822 209.974 143.821 210.188 143.952 210.321C144.018 210.387 144.104 210.42 144.191 210.421C144.277 210.421 144.364 210.388 144.431 210.323ZM152.127 202.691L153.404 201.425C153.536 201.294 153.537 201.08 153.406 200.947C153.274 200.814 153.06 200.814 152.928 200.945L151.651 202.211C151.519 202.342 151.518 202.556 151.649 202.689C151.715 202.755 151.801 202.788 151.887 202.789C151.975 202.789 152.062 202.756 152.127 202.691ZM149.036 201.114L149.044 199.317C149.045 199.131 148.894 198.978 148.707 198.977C148.52 198.977 148.368 199.127 148.367 199.314L148.359 201.111C148.358 201.298 148.509 201.45 148.696 201.451C148.884 201.451 149.036 201.301 149.036 201.114ZM144.496 205.616C144.497 205.429 144.347 205.277 144.159 205.276L142.362 205.269C142.176 205.268 142.023 205.419 142.023 205.606C142.022 205.793 142.172 205.945 142.36 205.946L144.157 205.954C144.343 205.954 144.496 205.803 144.496 205.616Z" fill="#3A3A3A"/>
<rect x="79" y="153" width="50" height="50" transform="rotate(-90 79 153)" fill="#ED6B4E"/>
<rect x="189" y="153" width="50" height="98" transform="rotate(-180 189 153)" fill="#ED6B4E"/>
<path d="M222.049 107.927C222.348 107.006 223.652 107.006 223.951 107.927L228.164 120.893C228.298 121.305 228.682 121.584 229.115 121.584H242.748C243.716 121.584 244.119 122.823 243.335 123.393L232.306 131.406C231.956 131.66 231.809 132.112 231.943 132.524L236.156 145.489C236.455 146.411 235.401 147.177 234.617 146.607L223.588 138.594C223.237 138.34 222.763 138.34 222.412 138.594L211.383 146.607C210.599 147.177 209.545 146.411 209.844 145.489L214.057 132.524C214.191 132.112 214.044 131.66 213.694 131.406L202.665 123.393C201.881 122.823 202.284 121.584 203.252 121.584H216.885C217.318 121.584 217.702 121.305 217.836 120.893L222.049 107.927Z" fill="#ED6B4E"/>
<circle cx="281" cy="129" r="24" fill="#ED6B4E"/>
<path d="M176.348 135.59L176.272 135.664C175.982 135.941 175.75 136.274 175.591 136.643C175.209 136.305 174.745 136.07 174.246 135.962C173.746 135.854 173.228 135.877 172.739 136.027C172.251 136.178 171.81 136.451 171.457 136.821C171.105 137.191 170.854 137.646 170.729 138.141C170.032 137.942 169.288 138.003 168.633 138.313C167.979 138.623 167.46 139.161 167.173 139.825L164.337 136.866C163.785 136.29 163.027 135.957 162.229 135.94C161.432 135.923 160.66 136.223 160.084 136.775C159.508 137.327 159.175 138.085 159.158 138.882C159.141 139.68 159.442 140.452 159.993 141.028L167.659 149.027L167.427 148.973L167.322 148.953C166.926 148.905 166.524 148.938 166.141 149.05C165.758 149.161 165.402 149.35 165.094 149.603C164.785 149.856 164.532 150.17 164.348 150.524C164.165 150.878 164.055 151.266 164.026 151.664C163.974 152.399 164.199 153.128 164.656 153.706C165.114 154.285 165.77 154.672 166.498 154.792L178.452 157.647L181.409 160.732C181.58 160.911 181.816 161.014 182.063 161.02C182.31 161.025 182.55 160.932 182.728 160.76L191.639 152.221C191.818 152.05 191.921 151.815 191.927 151.567C191.932 151.32 191.839 151.081 191.667 150.902L188.728 147.834L188.132 143.787C188.104 143.595 188.017 143.416 187.883 143.276L180.592 135.668C180.039 135.097 179.282 134.768 178.486 134.754C177.691 134.739 176.923 135.04 176.348 135.59ZM186.325 144.356L186.921 148.403C186.948 148.595 187.035 148.774 187.169 148.914L189.679 151.533L182.12 158.776L179.61 156.158C179.486 156.029 179.328 155.939 179.154 155.897L166.897 152.996L166.813 152.981C166.542 152.941 166.296 152.8 166.124 152.586C165.953 152.371 165.868 152.1 165.888 151.827C165.899 151.685 165.938 151.546 166.002 151.419C166.067 151.292 166.155 151.179 166.264 151.087C166.372 150.994 166.497 150.924 166.633 150.88C166.768 150.836 166.911 150.819 167.053 150.831L170.306 151.556C170.502 151.602 170.708 151.584 170.892 151.504C171.077 151.424 171.231 151.287 171.331 151.112C171.431 150.938 171.472 150.736 171.448 150.536C171.424 150.336 171.336 150.15 171.197 150.004L161.35 139.728C161.14 139.509 161.026 139.216 161.033 138.914C161.039 138.611 161.166 138.323 161.384 138.114C161.603 137.904 161.896 137.79 162.198 137.797C162.501 137.803 162.789 137.93 162.998 138.148L170.836 146.327C171.007 146.506 171.242 146.609 171.49 146.614C171.737 146.619 171.976 146.526 172.155 146.355C172.334 146.184 172.437 145.949 172.442 145.701C172.448 145.454 172.354 145.214 172.183 145.036L169.097 141.815C168.888 141.597 168.774 141.304 168.78 141.001C168.787 140.699 168.913 140.411 169.132 140.201C169.35 139.992 169.643 139.878 169.946 139.884C170.248 139.891 170.536 140.017 170.746 140.236L173.831 143.456C174.003 143.635 174.238 143.738 174.485 143.743C174.733 143.749 174.972 143.655 175.151 143.484C175.329 143.313 175.433 143.078 175.438 142.83C175.443 142.583 175.35 142.344 175.179 142.165L172.803 139.686C172.594 139.467 172.48 139.174 172.486 138.872C172.492 138.569 172.619 138.281 172.837 138.072C173.056 137.862 173.349 137.748 173.652 137.755C173.954 137.761 174.242 137.888 174.451 138.106L177.804 141.605C177.975 141.784 178.211 141.887 178.458 141.892C178.705 141.898 178.945 141.804 179.123 141.633C179.302 141.462 179.405 141.227 179.411 140.979C179.416 140.732 179.323 140.492 179.152 140.314L178.42 139.55C178.42 139.55 178.42 139.55 178.39 139.519L177.52 138.612C177.311 138.394 177.198 138.102 177.204 137.8C177.211 137.498 177.337 137.211 177.555 137.002L177.631 136.929C177.849 136.72 178.141 136.606 178.443 136.613C178.745 136.619 179.032 136.745 179.241 136.963L186.325 144.356Z" fill="#3A3A3A"/>
</svg>
