<svg width="40" height="30" viewBox="0 0 40 30" fill="none" xmlns="http://www.w3.org/2000/svg">
<path d="M35.7143 0.714355H4.28571C1.91963 0.714355 0 2.63399 0 5.00007V25.0001C0 27.3661 1.91963 29.2858 4.28571 29.2858H35.7143C38.0804 29.2858 40 27.3661 40 25.0001V5.00007C40 2.63399 38.0804 0.714355 35.7143 0.714355ZM35.1036 3.5715L20.6126 15.1217C20.2019 15.5038 19.8001 15.5038 19.3055 15.052L4.89632 3.5718L35.1036 3.5715ZM35.7143 26.4286H4.28571C3.49641 26.4286 2.85714 25.7894 2.85714 25.0001V5.59847L17.4427 17.2163V17.2181C18.1374 17.8841 19.0606 18.2609 20.0249 18.2734C20.9374 18.2699 21.8142 17.9163 22.4749 17.2878L37.1428 5.60044V25.0007C37.1428 25.3792 36.9928 25.7435 36.7249 26.0114C36.4571 26.2792 36.0928 26.4292 35.7142 26.4292L35.7143 26.4286Z" fill="black"/>
</svg>
