<svg width="258" height="61" viewBox="0 0 258 61" fill="none" xmlns="http://www.w3.org/2000/svg">
<path d="M14.8913 46.9819C12.4178 46.9819 10.2816 46.4679 8.48267 45.4399C6.69445 44.4013 5.31849 42.9343 4.35479 41.039C3.39108 39.133 2.90923 36.8897 2.90923 34.3091C2.90923 31.7713 3.39108 29.5441 4.35479 27.6274C5.3292 25.7 6.6891 24.2009 8.43448 23.1301C10.1799 22.0486 12.2304 21.5079 14.5861 21.5079C16.1067 21.5079 17.5415 21.7541 18.8907 22.2467C20.2506 22.7286 21.4499 23.4781 22.4885 24.4953C23.5379 25.5126 24.3624 26.8082 24.9621 28.3823C25.5617 29.9456 25.8615 31.8088 25.8615 33.9718V35.7547H5.63973V31.8356H20.2881C20.2774 30.722 20.0364 29.7315 19.5653 28.8642C19.0942 27.9861 18.4356 27.2955 17.5897 26.7922C16.7545 26.2889 15.7801 26.0373 14.6665 26.0373C13.4779 26.0373 12.4339 26.3264 11.5344 26.9046C10.6349 27.4721 9.93358 28.2217 9.43031 29.1533C8.93775 30.0741 8.68612 31.086 8.67541 32.1889V35.6101C8.67541 37.045 8.93775 38.2764 9.46244 39.3043C9.98712 40.3216 10.7206 41.1032 11.6629 41.6493C12.6052 42.1847 13.7081 42.4524 14.9716 42.4524C15.8176 42.4524 16.5832 42.3346 17.2685 42.0991C17.9538 41.8528 18.5481 41.4941 19.0513 41.0229C19.5546 40.5518 19.9347 39.9682 20.1917 39.2722L25.6206 39.8825C25.2779 41.3174 24.6248 42.5702 23.6611 43.641C22.7081 44.7011 21.4874 45.5256 19.999 46.1145C18.5106 46.6927 16.808 46.9819 14.8913 46.9819ZM30.7804 46.5V21.8291H36.3378V26.0212H36.6269C37.1409 24.6078 37.9922 23.5049 39.1808 22.7125C40.3693 21.9094 41.7881 21.5079 43.4371 21.5079C45.1076 21.5079 46.5156 21.9148 47.6614 22.7286C48.8178 23.5316 49.6316 24.6292 50.1028 26.0212H50.3598C50.9059 24.6506 51.8267 23.5584 53.1224 22.7446C54.4288 21.9201 55.976 21.5079 57.7643 21.5079C60.0343 21.5079 61.8868 22.2253 63.3216 23.6601C64.7565 25.095 65.4739 27.1884 65.4739 29.9403V46.5H59.6435V30.8398C59.6435 29.3085 59.2366 28.1896 58.4228 27.4828C57.609 26.7654 56.6132 26.4067 55.4353 26.4067C54.0326 26.4067 52.935 26.8457 52.1426 27.7238C51.361 28.5911 50.9701 29.7208 50.9701 31.1128V46.5H45.2682V30.5988C45.2682 29.3246 44.8827 28.3073 44.1117 27.5471C43.3515 26.7868 42.3556 26.4067 41.1242 26.4067C40.289 26.4067 39.5288 26.6209 38.8435 27.0492C38.1582 27.4668 37.6121 28.0611 37.2052 28.832C36.7983 29.5923 36.5948 30.481 36.5948 31.4983V46.5H30.7804ZM71.6296 46.5V13.6055H77.444V25.9088H77.6849C77.9847 25.3091 78.4077 24.672 78.9538 23.9974C79.4999 23.3121 80.2387 22.7286 81.1703 22.2467C82.1019 21.7541 83.2905 21.5079 84.736 21.5079C86.642 21.5079 88.3606 21.9951 89.8919 22.9695C91.4338 23.9332 92.6545 25.3627 93.5539 27.258C94.4641 29.1426 94.9192 31.4555 94.9192 34.1967C94.9192 36.9058 94.4748 39.2079 93.5861 41.1032C92.6973 42.9985 91.4873 44.4441 89.9561 45.4399C88.4249 46.4358 86.6902 46.9337 84.7521 46.9337C83.3386 46.9337 82.1661 46.6981 81.2345 46.2269C80.303 45.7558 79.5534 45.1883 78.9859 44.5244C78.4291 43.8498 77.9954 43.2127 77.6849 42.613H77.3476V46.5H71.6296ZM77.3315 34.1645C77.3315 35.76 77.5564 37.1574 78.0061 38.3567C78.4666 39.556 79.1251 40.4929 79.9817 41.1675C80.8491 41.8314 81.8984 42.1633 83.1298 42.1633C84.4148 42.1633 85.4909 41.8207 86.3583 41.1354C87.2256 40.4394 87.8788 39.4917 88.3178 38.2924C88.7675 37.0824 88.9924 35.7065 88.9924 34.1645C88.9924 32.6333 88.7729 31.2734 88.3339 30.0849C87.8948 28.8963 87.2417 27.9647 86.3743 27.2901C85.507 26.6155 84.4255 26.2782 83.1298 26.2782C81.8877 26.2782 80.833 26.6048 79.9657 27.258C79.0983 27.9112 78.4398 28.8267 77.9901 30.0045C77.551 31.1824 77.3315 32.5691 77.3315 34.1645ZM106.962 46.9979C105.398 46.9979 103.99 46.7195 102.737 46.1627C101.495 45.5952 100.51 44.76 99.7819 43.6571C99.0645 42.5542 98.7058 41.1943 98.7058 39.5774C98.7058 38.1853 98.9627 37.0343 99.4767 36.1241C99.9907 35.2139 100.692 34.4858 101.581 33.9397C102.47 33.3936 103.471 32.9813 104.584 32.7029C105.709 32.4138 106.87 32.205 108.07 32.0765C109.515 31.9266 110.688 31.7928 111.587 31.675C112.487 31.5465 113.14 31.3537 113.547 31.0967C113.964 30.829 114.173 30.4168 114.173 29.86V29.7636C114.173 28.5536 113.815 27.6167 113.097 26.9528C112.38 26.2889 111.346 25.957 109.997 25.957C108.573 25.957 107.443 26.2675 106.608 26.8886C105.784 27.5096 105.227 28.2431 104.938 29.089L99.5088 28.3181C99.9372 26.819 100.644 25.5661 101.629 24.5596C102.614 23.5423 103.819 22.7821 105.243 22.2788C106.667 21.7648 108.241 21.5079 109.965 21.5079C111.154 21.5079 112.337 21.6471 113.515 21.9255C114.693 22.2039 115.769 22.6643 116.743 23.3068C117.718 23.9385 118.499 24.8005 119.088 25.8927C119.688 26.9849 119.988 28.3502 119.988 29.9885V46.5H114.398V43.111H114.205C113.852 43.7963 113.354 44.4387 112.712 45.0384C112.08 45.6273 111.282 46.1038 110.318 46.4679C109.365 46.8212 108.246 46.9979 106.962 46.9979ZM108.471 42.7255C109.638 42.7255 110.65 42.4953 111.507 42.0348C112.364 41.5637 113.022 40.9426 113.483 40.1717C113.954 39.4007 114.189 38.5601 114.189 37.65V34.7428C114.007 34.8927 113.697 35.0319 113.258 35.1604C112.829 35.2889 112.348 35.4013 111.812 35.4977C111.277 35.594 110.747 35.6797 110.222 35.7547C109.697 35.8296 109.242 35.8939 108.857 35.9474C107.989 36.0652 107.213 36.2579 106.528 36.5256C105.843 36.7933 105.302 37.1681 104.906 37.65C104.509 38.1211 104.311 38.7314 104.311 39.481C104.311 40.5518 104.702 41.3602 105.484 41.9063C106.266 42.4524 107.261 42.7255 108.471 42.7255ZM125.834 46.5V21.8291H131.472V25.9409H131.729C132.179 24.5168 132.949 23.4192 134.042 22.6482C135.145 21.8666 136.403 21.4757 137.816 21.4757C138.137 21.4757 138.496 21.4918 138.892 21.5239C139.299 21.5453 139.637 21.5828 139.904 21.6363V26.9849C139.658 26.8993 139.267 26.8243 138.732 26.7601C138.207 26.6851 137.698 26.6476 137.206 26.6476C136.146 26.6476 135.193 26.8778 134.347 27.3383C133.512 27.788 132.853 28.4144 132.371 29.2175C131.889 30.0206 131.648 30.9468 131.648 31.9962V46.5H125.834ZM149.068 38.7582L149.051 31.7392H149.983L158.849 21.8291H165.643L154.737 33.9718H153.533L149.068 38.7582ZM143.767 46.5V13.6055H149.581V46.5H143.767ZM159.251 46.5L151.22 35.2728L155.139 31.1771L166.205 46.5H159.251Z" fill="white"/>
<path d="M195.2 15.3727L194.473 14.5H193.164H181.964H174.982L179.927 19.4455L190.982 30.5L179.927 41.5545L174.982 46.5H181.964H193.164H194.327L195.2 45.6273L208.291 32.5364L210.327 30.5L208.291 28.4636L195.2 15.3727ZM193.164 43.5909H181.964L195.055 30.5L181.964 17.4091H193.164L206.255 30.5L193.164 43.5909Z" fill="white"/>
<path d="M218.545 15.3727L217.818 14.5H216.509H205.309H198.327L203.273 19.4455L214.327 30.5L203.273 41.5545L198.327 46.5H205.309H216.509H217.673L218.545 45.6273L231.636 32.5364L233.673 30.5L231.636 28.4636L218.545 15.3727ZM216.509 43.5909H205.309L218.4 30.5L205.309 17.4091H216.509L229.6 30.5L216.509 43.5909Z" fill="white"/>
<path d="M241.891 15.3727L241.164 14.5H239.855H228.655H221.673L226.618 19.4455L237.673 30.5L226.618 41.5545L221.673 46.5H228.655H239.855H241.018L241.891 45.6273L254.982 32.5364L257.018 30.5L254.982 28.4636L241.891 15.3727ZM239.855 43.5909H228.655L241.745 30.5L228.655 17.4091H239.855L252.945 30.5L239.855 43.5909Z" fill="white"/>
</svg>
