<svg width="99" height="99" viewBox="0 0 99 99" fill="none" xmlns="http://www.w3.org/2000/svg">
<path d="M76.5381 49.3028C76.5381 64.4906 64.226 76.8028 49.0381 76.8028C33.8503 76.8028 21.5381 64.4906 21.5381 49.3028C21.5381 34.115 33.8503 21.8028 49.0381 21.8028C64.226 21.8028 76.5381 34.115 76.5381 49.3028Z" fill="#2A2A2A" stroke="#E2E2E2"/>
<path d="M82.1 51.5504L93.1608 53.311L92.9495 54.6383L82.9474 53.0462L82.1275 58.1973L81.0688 58.0288L82.1 51.5504Z" fill="#E2E2E2"/>
<path d="M77.7814 65.1315C78.1447 64.467 78.6169 63.9593 79.1978 63.6083C79.7881 63.2625 80.4366 63.0882 81.1432 63.0856C81.8446 63.0923 82.565 63.2978 83.3044 63.7021C84.0344 64.1012 84.5914 64.5943 84.9756 65.1812C85.3691 65.7733 85.5749 66.4086 85.5929 67.0871C85.6152 67.7801 85.4395 68.4682 85.0659 69.1513C84.6974 69.8252 84.2257 70.321 83.6508 70.6388C83.08 70.971 82.475 71.1326 81.8357 71.1234C81.1964 71.1142 80.5913 70.9535 80.0204 70.6413C79.9175 70.585 79.8171 70.524 79.7192 70.4584C79.6163 70.4021 79.4993 70.3381 79.3683 70.2665L82.4005 64.7214C81.8517 64.4578 81.3406 64.3363 80.8673 64.3571C80.3982 64.3924 79.9852 64.5252 79.6282 64.7555C79.2662 64.9952 78.9828 65.3022 78.7781 65.6765C78.512 66.1632 78.4017 66.6317 78.4471 67.0821C78.4926 67.5325 78.6663 67.9375 78.9681 68.297L78.331 69.4622C77.7876 68.9219 77.4465 68.2673 77.3077 67.4985C77.1731 66.7441 77.331 65.9551 77.7814 65.1315ZM84.0845 68.5782C84.3916 68.0167 84.4922 67.4213 84.3865 66.7921C84.285 66.1774 83.9246 65.6581 83.3053 65.2344L80.9102 69.6143C81.5526 69.9291 82.1617 69.9825 82.7374 69.7746C83.3131 69.5666 83.7621 69.1678 84.0845 68.5782Z" fill="#E2E2E2"/>
<path d="M71.1575 73.8224C71.6778 73.3171 72.2098 73.0457 72.7535 73.0083C73.2971 72.971 73.8885 73.2813 74.5277 73.9393L77.5711 77.0725L78.5581 76.1138L79.3496 76.9286L78.3626 77.8874L79.563 79.3758L78.7252 80.1896L77.3986 78.8238L75.7229 80.4514L74.9314 79.6366L76.607 78.009L73.5636 74.8758C73.2143 74.5161 72.9038 74.3419 72.6321 74.353C72.3678 74.3718 72.052 74.5596 71.6848 74.9163L71.088 75.496L70.2853 74.6697L71.1575 73.8224Z" fill="#E2E2E2"/>
<path d="M72.0253 82.8292L73.1834 86.3293L71.9204 87.146L71.2191 83.3505L72.0253 82.8292Z" fill="#E2E2E2"/>
<path d="M60.3751 80.0984C61.264 79.7649 62.0873 79.7123 62.8451 79.9407C63.603 80.169 64.1761 80.6489 64.5645 81.3804L63.2762 81.8638C63.0502 81.5043 62.7181 81.2415 62.2798 81.0756C61.8353 80.9234 61.3285 80.9541 60.7592 81.1677C60.2299 81.3663 59.8817 81.6223 59.7144 81.9356C59.551 82.259 59.5273 82.5755 59.6435 82.8851C59.8121 83.3345 60.0893 83.5723 60.4751 83.5984C60.8509 83.6283 61.3558 83.5926 61.99 83.4914C62.4195 83.4214 62.862 83.3863 63.3177 83.3863C63.7734 83.3862 64.1867 83.4703 64.5575 83.6388C64.932 83.8173 65.2036 84.1312 65.3723 84.5806C65.6158 85.2297 65.5748 85.849 65.249 86.4383C64.9171 87.0414 64.3366 87.4984 63.5077 87.8094C62.7188 88.1055 61.9997 88.1474 61.3505 87.9353C60.695 87.7369 60.1905 87.2882 59.8371 86.5892L61.0804 86.1226C61.2728 86.4834 61.5481 86.7162 61.9064 86.821C62.2585 86.9395 62.6642 86.9126 63.1236 86.7402C63.573 86.5716 63.887 86.3456 64.0654 86.0621C64.2339 85.7824 64.2601 85.4878 64.1439 85.1782C64.0315 84.8786 63.7886 84.702 63.4154 84.6484C63.0321 84.5985 62.5483 84.6149 61.9641 84.6974C61.4672 84.7699 60.9859 84.8081 60.5203 84.8119C60.0483 84.8295 59.6282 84.7422 59.2599 84.55C58.8853 84.3715 58.5969 84.0126 58.3945 83.4734C58.1335 82.808 58.1802 82.1582 58.5346 81.5239C58.8828 80.9033 59.4963 80.4282 60.3751 80.0984Z" fill="#E2E2E2"/>
<path d="M48.4171 82.8296L46.8707 90.6135L45.678 90.3765L45.8083 89.2279C45.4741 89.5965 45.0749 89.8543 44.6107 90.0013C44.1465 90.1484 43.6528 90.1699 43.1297 90.066C42.5124 89.9434 42.009 89.7128 41.6195 89.3745C41.2195 89.034 40.9501 88.5835 40.8113 88.0231C40.4458 88.4398 40.0006 88.7375 39.4757 88.9159C38.9404 89.0923 38.3955 89.1255 37.841 89.0153C36.9099 88.8303 36.2232 88.4003 35.781 87.7251C35.3366 87.0605 35.2298 86.1475 35.4605 84.9862L36.3647 80.4351L37.6672 80.6939L36.7911 85.1037C36.6311 85.9093 36.6727 86.5483 36.916 87.0208C37.1592 87.4933 37.5843 87.7898 38.1911 87.9103C38.8188 88.035 39.3908 87.8931 39.9069 87.4845C40.4106 87.0843 40.7518 86.4343 40.9305 85.5346L41.7318 81.5014L43.05 81.7633L42.1739 86.1731C42.0139 86.9787 42.0555 87.6177 42.2988 88.0902C42.542 88.5627 42.9671 88.8592 43.5739 88.9797C44.1911 89.1024 44.7579 88.9594 45.274 88.5508C45.7777 88.1506 46.1189 87.5006 46.2976 86.6009L47.0989 82.5677L48.4171 82.8296Z" fill="#E2E2E2"/>
<path d="M30.2071 76.1769C30.7419 76.5659 31.1202 76.9796 31.3421 77.418C31.564 77.8564 31.6514 78.2893 31.6043 78.7167C31.5572 79.1441 31.405 79.5347 31.1478 79.8883C30.6709 80.5439 30.0537 80.8665 29.2961 80.8563C28.5386 80.846 27.7285 80.5271 26.8659 79.8997L25.1321 78.6385L25.0756 78.7161C24.6678 79.2768 24.5069 79.8061 24.5932 80.3041C24.6731 80.8107 24.9589 81.2429 25.4506 81.6005C25.8733 81.908 26.3183 82.0668 26.7857 82.0771C27.2382 82.0897 27.6507 81.9215 28.0233 81.5726L29.136 82.382C28.754 82.8164 28.3133 83.0959 27.8137 83.2206C27.3055 83.339 26.7891 83.3326 26.2645 83.2016C25.7335 83.0792 25.2395 82.8518 24.7823 82.5192C23.8852 81.8666 23.3881 81.1357 23.2909 80.3263C23.1789 79.5194 23.4115 78.7191 23.9887 77.9255L26.8594 73.9791L27.8298 74.685L27.0568 75.8837C27.5015 75.6531 27.9948 75.5371 28.5367 75.5356C29.0637 75.5364 29.6205 75.7502 30.2071 76.1769ZM29.3706 76.9732C28.9566 76.672 28.5245 76.5226 28.0743 76.5249C27.6155 76.5209 27.183 76.635 26.7768 76.8671C26.3705 77.0992 26.0294 77.405 25.7533 77.7845L25.7439 77.7974L27.3871 78.9928C28.0254 79.4571 28.5598 79.6744 28.9904 79.6446C29.406 79.6172 29.7331 79.4396 29.9715 79.1118C30.2162 78.7754 30.2931 78.4159 30.2022 78.0331C30.0963 77.6528 29.8192 77.2995 29.3706 76.9732Z" fill="#E2E2E2"/>
<path d="M23.8939 70.873L14.5286 77.5814L13.746 76.4888L19.3781 72.4545L14.7682 71.7613L13.8085 70.4215L18.772 71.1961L19.9993 65.436L20.9962 66.8278L19.7684 72.1749L23.1112 69.7804L23.8939 70.873Z" fill="#E2E2E2"/>
<path d="M17.4974 58.3606C17.7093 59.0877 17.7335 59.7806 17.5699 60.4393C17.3962 61.101 17.06 61.6823 16.5616 62.1831C16.0601 62.6737 15.4049 63.0368 14.5959 63.2726C13.7971 63.5054 13.0545 63.5496 12.368 63.4053C11.6713 63.2639 11.077 62.9594 10.5852 62.4916C10.0801 62.0166 9.71865 61.4054 9.50078 60.6578C9.2859 59.9205 9.26983 59.2363 9.45257 58.6053C9.62209 57.967 9.93644 57.4255 10.3956 56.9805C10.8548 56.5356 11.3967 56.2221 12.0214 56.0401C12.1341 56.0073 12.2482 55.9795 12.3638 55.957C12.4765 55.9241 12.6045 55.8868 12.7479 55.845L14.5162 61.9126C15.091 61.7118 15.5386 61.4369 15.8591 61.0879C16.1664 60.7317 16.3651 60.3461 16.4552 59.9309C16.5423 59.5056 16.5262 59.0881 16.4068 58.6784C16.2516 58.1459 15.9989 57.7363 15.6487 57.4495C15.2984 57.1627 14.8895 56.9986 14.4219 56.9571L14.0503 55.6821C14.8166 55.681 15.5203 55.9036 16.1615 56.3501C16.7895 56.7892 17.2348 57.4594 17.4974 58.3606ZM10.6004 60.3707C10.7794 60.9851 11.1286 61.4778 11.6477 61.8486C12.1537 62.2123 12.7755 62.3255 13.5133 62.1882L12.1165 57.3956C11.4393 57.6263 10.9703 58.0185 10.7095 58.5723C10.4487 59.126 10.4123 59.7255 10.6004 60.3707Z" fill="#E2E2E2"/>
<path d="M6.60976 44.508C6.58001 44.773 6.47022 44.9861 6.28039 45.1472C6.08115 45.2966 5.84903 45.3564 5.58403 45.3267C5.32963 45.2981 5.12715 45.1895 4.97658 45.0009C4.82721 44.8016 4.7674 44.5695 4.79714 44.3045C4.8257 44.0501 4.9349 43.8423 5.12472 43.6811C5.31455 43.52 5.53667 43.4537 5.79107 43.4822C6.05607 43.512 6.26856 43.6271 6.42854 43.8275C6.57791 44.0267 6.63832 44.2536 6.60976 44.508ZM16.1703 46.2574L8.28381 45.3721L8.43374 44.0365L16.3202 44.9218L16.1703 46.2574Z" fill="#E2E2E2"/>
<path d="M17.9511 38.1503C17.7298 38.841 17.3881 39.3308 16.9259 39.6196C16.4638 39.9083 15.7959 39.9128 14.9223 39.6329L10.7626 38.3002L10.3428 39.6106L9.26094 39.264L9.68075 37.9536L7.92123 37.2051L8.27759 36.0928L10.0908 36.6737L10.8035 34.4491L11.8854 34.7957L11.1726 37.0203L15.3324 38.353C15.8098 38.506 16.1658 38.5136 16.4003 38.3759C16.6247 38.235 16.815 37.9207 16.9712 37.4331L17.225 36.6408L18.3221 36.9923L17.9511 38.1503Z" fill="#E2E2E2"/>
<path d="M22.6153 29.2211L14.2361 21.3155L15.1585 20.3379L18.7545 23.7307C18.5806 23.2001 18.5651 22.6648 18.7078 22.1249C18.8428 21.5777 19.108 21.0946 19.5033 20.6756C20.1328 20.0084 20.8474 19.6707 21.647 19.6625C22.4388 19.6471 23.2653 20.0456 24.1265 20.8581L27.5015 24.0424L26.5901 25.0083L23.3199 21.9229C22.1173 20.7883 21.0585 20.7059 20.1435 21.6757C19.6677 22.18 19.4511 22.7748 19.4937 23.4603C19.5285 24.1383 19.8795 24.7922 20.5467 25.4217L23.5376 28.2436L22.6153 29.2211Z" fill="#E2E2E2"/>
<path d="M33.5291 20.3796C32.9408 20.6818 32.401 20.8332 31.9096 20.8337C31.4183 20.8343 30.9924 20.7173 30.6321 20.4827C30.2717 20.2481 29.9917 19.9362 29.7918 19.5472C29.4214 18.8261 29.4115 18.1297 29.762 17.458C30.1125 16.7864 30.7621 16.2068 31.7109 15.7195L33.618 14.7398L33.5742 14.6545C33.2574 14.0377 32.8573 13.6557 32.3739 13.5083C31.8855 13.3514 31.371 13.4118 30.8302 13.6896C30.3652 13.9284 30.0229 14.2542 29.8032 14.6668C29.5881 15.0651 29.5523 15.5092 29.696 15.999L28.472 16.6277C28.2563 16.0909 28.2053 15.5715 28.3191 15.0694C28.4424 14.5623 28.6808 14.1042 29.0341 13.6948C29.3826 13.276 29.8082 12.9374 30.3111 12.6791C31.2979 12.1723 32.1744 12.0578 32.9407 12.3357C33.7117 12.5992 34.3213 13.1675 34.7697 14.0404L36.9994 18.3812L35.932 18.9295L35.2102 17.6994C35.2156 18.2002 35.0969 18.6929 34.8541 19.1773C34.616 19.6474 34.1743 20.0482 33.5291 20.3796ZM33.195 19.2741C33.6505 19.0402 33.9786 18.7217 34.1793 18.3188C34.3896 17.911 34.4826 17.4735 34.4584 17.0063C34.4343 16.539 34.315 16.0967 34.1005 15.6792L34.0932 15.6649L32.2857 16.5934C31.5836 16.954 31.1488 17.3332 30.9814 17.731C30.8186 18.1144 30.8298 18.4864 31.015 18.847C31.2051 19.217 31.4915 19.4477 31.8741 19.5389C32.2613 19.6158 32.7017 19.5275 33.195 19.2741Z" fill="#E2E2E2"/>
<path d="M41.6811 20.4764L40.3594 9.0969L41.5673 8.95661L41.8458 10.2451C42.0558 9.83411 42.376 9.44791 42.8065 9.0865C43.2476 8.72385 43.8337 8.50007 44.5648 8.41516C45.3489 8.32409 46.0532 8.42483 46.6778 8.71739C47.3024 9.00995 47.8099 9.45034 48.2004 10.0386C48.6015 10.6255 48.8481 11.3164 48.9404 12.111C49.0327 12.9057 48.951 13.6346 48.6951 14.2979C48.4486 14.9494 48.0496 15.4897 47.4981 15.9188C46.956 16.3362 46.2929 16.5904 45.5088 16.6814C44.8625 16.7565 44.2697 16.6911 43.7303 16.4853C43.2016 16.2783 42.7771 15.9517 42.4568 15.5057L43.0161 20.3213L41.6811 20.4764ZM45.231 15.5379C45.7608 15.4763 46.2128 15.3003 46.5872 15.0099C46.9603 14.7088 47.2375 14.3222 47.4189 13.8502C47.6003 13.3781 47.6566 12.8454 47.5877 12.252C47.5188 11.6587 47.3419 11.153 47.0571 10.7351C46.7723 10.3172 46.4145 10.0097 45.9835 9.81281C45.5514 9.60528 45.0704 9.53228 44.5406 9.59382C44.0109 9.65535 43.5594 9.83664 43.1863 10.1377C42.812 10.4282 42.5342 10.8094 42.3527 11.2815C42.1713 11.7536 42.1151 12.2863 42.184 12.8797C42.2529 13.473 42.4298 13.9786 42.7145 14.3966C42.9993 14.8145 43.3578 15.1272 43.79 15.3348C44.2209 15.5317 44.7013 15.5994 45.231 15.5379Z" fill="#E2E2E2"/>
<path d="M53.4117 19.879L56.5755 8.86853L57.7442 9.20434L57.5049 10.5007C57.857 10.2023 58.3012 9.96927 58.8378 9.80158C59.3845 9.63683 60.0116 9.65609 60.719 9.85934C61.4776 10.0773 62.0888 10.4416 62.5525 10.9522C63.0162 11.4628 63.3149 12.0647 63.4486 12.7579C63.5927 13.4541 63.5542 14.1866 63.3333 14.9555C63.1123 15.7244 62.7561 16.3656 62.2645 16.8791C61.7861 17.3854 61.2097 17.7303 60.5355 17.9139C59.8744 18.0902 59.1646 18.0694 58.4059 17.8514C57.7806 17.6717 57.2586 17.383 56.8402 16.9853C56.432 16.5906 56.166 16.1257 56.0423 15.5907L54.7035 20.2502L53.4117 19.879ZM58.5901 16.689C59.1027 16.8363 59.5876 16.848 60.0449 16.7242C60.5052 16.5901 60.91 16.3401 61.2592 15.9744C61.6085 15.6086 61.8656 15.1386 62.0306 14.5645C62.1955 13.9904 62.2271 13.4557 62.1253 12.9603C62.0235 12.4649 61.8116 12.0434 61.4898 11.6956C61.171 11.3377 60.7552 11.085 60.2426 10.9377C59.73 10.7904 59.2436 10.7839 58.7833 10.918C58.326 11.0418 57.9227 11.2866 57.5735 11.6524C57.2242 12.0182 56.9671 12.4881 56.8021 13.0622C56.6372 13.6363 56.6056 14.1711 56.7074 14.6665C56.8092 15.1618 57.0196 15.5885 57.3385 15.9465C57.6603 16.2942 58.0775 16.5417 58.5901 16.689Z" fill="#E2E2E2"/>
<path d="M69.0497 23.3026C68.4488 22.8416 68.0195 22.2971 67.7619 21.6692C67.5107 21.0328 67.438 20.3653 67.5437 19.6667C67.658 18.9746 67.9716 18.2943 68.4845 17.6257C68.991 16.9656 69.5637 16.4908 70.2026 16.2012C70.848 15.9032 71.5074 15.7973 72.1806 15.8836C72.8688 15.9679 73.5218 16.2471 74.1396 16.7211C74.7489 17.1886 75.1664 17.7308 75.3922 18.3477C75.633 18.9626 75.6998 19.5853 75.5926 20.2156C75.4855 20.8459 75.2338 21.4192 74.8378 21.9354C74.7663 22.0285 74.6907 22.1184 74.6108 22.205C74.5394 22.2981 74.4582 22.4038 74.3673 22.5223L69.3531 18.6753C69.0084 19.1771 68.81 19.6635 68.7579 20.1344C68.7208 20.6034 68.7886 21.0319 68.9615 21.4199C69.1428 21.8145 69.4027 22.1416 69.7412 22.4013C70.1812 22.739 70.6273 22.9198 71.0793 22.944C71.5313 22.9681 71.9582 22.8587 72.3598 22.6156L73.4134 23.4239C72.7961 23.878 72.097 24.1147 71.3159 24.1338C70.5498 24.1511 69.7944 23.874 69.0497 23.3026ZM73.4227 17.6029C72.9149 17.2133 72.342 17.0225 71.704 17.0305C71.081 17.0365 70.5126 17.3129 69.9989 17.8599L73.9595 20.8986C74.3691 20.3121 74.5153 19.7184 74.3982 19.1177C74.281 18.5169 73.9558 18.012 73.4227 17.6029Z" fill="#E2E2E2"/>
<path d="M75.1793 28.862L81.906 24.651L82.5512 25.6817L81.3866 26.5051C81.9474 26.4561 82.4772 26.5586 82.976 26.8127C83.4748 27.0667 83.8855 27.4514 84.2081 27.9668C84.7062 28.7624 84.8583 29.5481 84.6644 30.3239C84.4851 31.103 83.8938 31.8067 82.8902 32.435L78.9572 34.897L78.2441 33.7578L82.055 31.3722C83.4564 30.4949 83.7948 29.4776 83.0704 28.3203C82.7082 27.7417 82.1929 27.391 81.5246 27.2682C80.871 27.1489 80.1554 27.3325 79.3778 27.8193L75.8924 30.0012L75.1793 28.862Z" fill="#E2E2E2"/>
<path d="M50.0073 60.8484L58.6415 52.6687C59.1022 52.2096 59.2607 51.2249 58.7508 50.6879C58.2409 50.1509 57.2732 50.1543 56.767 50.6948L50.4334 56.6875V38.9506C50.4334 38.1977 49.823 37.5873 49.0701 37.5873C48.3171 37.5873 47.7068 38.1977 47.7068 38.9506V56.6875L41.3731 50.6948C40.8669 50.1543 39.8628 50.1185 39.3894 50.6879C38.9518 51.2141 38.9328 52.1911 39.4986 52.6687L48.1328 60.8484C48.4814 61.196 49.3986 61.4673 50.0073 60.8484Z" fill="#E2E2E2"/>
</svg>
