<svg width="12" height="17" viewBox="0 0 12 17" fill="none" xmlns="http://www.w3.org/2000/svg">
<path fill-rule="evenodd" clip-rule="evenodd" d="M1.01588 14.6853H1.21794C1.55845 11.8976 2.82694 9.98185 4.54814 8.49255C2.85304 7.92753 1.80914 5.32694 1.17674 2.31104H1.01584C0.615457 2.31104 0.289917 1.98551 0.289917 1.58514V0.859222C0.289917 0.458842 0.615457 0.133301 1.01584 0.133301H10.9841C11.3808 0.133301 11.7101 0.458842 11.7101 0.859222V1.58514C11.7101 1.98177 11.3883 2.3073 10.9954 2.31104C10.363 5.32694 9.31907 7.92755 7.62397 8.49255C9.34517 9.98185 10.6137 11.8976 10.9505 14.6853H10.9841C11.3808 14.6853 11.7101 15.0146 11.7101 15.4113V16.1409C11.7101 16.5376 11.3808 16.8668 10.9841 16.8668H1.01585C0.615467 16.8668 0.289927 16.5376 0.289927 16.1409V15.4113C0.289927 15.0146 0.615497 14.6853 1.01588 14.6853ZM9.97758 14.3112C7.80728 10.8874 4.63798 10.5095 2.21698 14.139C2.62858 11.5609 3.79978 9.64884 5.91768 8.55624C3.90078 7.93884 2.60988 5.79103 1.95878 2.31113H10.2133C9.55846 5.79103 8.27128 7.93884 6.25438 8.55624C8.41718 9.67504 9.59598 11.647 9.97758 14.3112Z" fill="black"/>
<path fill-rule="evenodd" clip-rule="evenodd" d="M3.63885 5.66541L8.61176 5.65039C7.29086 8.33329 5.13556 8.63641 3.63885 5.66541Z" fill="black"/>
</svg>
