<svg width="25" height="25" viewBox="0 0 25 25" fill="none" xmlns="http://www.w3.org/2000/svg">
<path fill-rule="evenodd" clip-rule="evenodd" d="M17.5 0.0146484H6.83329C3.1514 0.0146484 0.166626 2.99942 0.166626 6.68132V17.348C0.166626 21.0298 3.1514 24.0146 6.83329 24.0146H17.5C21.1818 24.0146 24.1666 21.0298 24.1666 17.348V6.68132C24.1666 2.99942 21.1818 0.0146484 17.5 0.0146484ZM21.8333 17.348C21.826 19.7381 19.8901 21.674 17.5 21.6813H6.83329C4.44309 21.674 2.50728 19.7381 2.49996 17.348V6.68132C2.50728 4.29112 4.44309 2.3553 6.83329 2.34798H17.5C19.8901 2.3553 21.826 4.29112 21.8333 6.68132V17.348ZM18.5 7.01465C19.2364 7.01465 19.8333 6.41769 19.8333 5.68132C19.8333 4.94494 19.2364 4.34798 18.5 4.34798C17.7636 4.34798 17.1666 4.94494 17.1666 5.68132C17.1666 6.41769 17.7636 7.01465 18.5 7.01465ZM12.1666 6.01465C8.85292 6.01465 6.16663 8.70094 6.16663 12.0146C6.16663 15.3284 8.85292 18.0146 12.1666 18.0146C15.4804 18.0146 18.1666 15.3284 18.1666 12.0146C18.1702 10.4222 17.5392 8.89407 16.4132 7.76809C15.2872 6.6421 13.759 6.0111 12.1666 6.01465ZM8.49996 12.0146C8.49996 14.0397 10.1416 15.6813 12.1666 15.6813C14.1917 15.6813 15.8333 14.0397 15.8333 12.0146C15.8333 9.98958 14.1917 8.34798 12.1666 8.34798C10.1416 8.34798 8.49996 9.98958 8.49996 12.0146Z" fill="#E2E2E2"/>
</svg>
