<svg width="25" height="25" viewBox="0 0 25 25" fill="none" xmlns="http://www.w3.org/2000/svg">
<path fill-rule="evenodd" clip-rule="evenodd" d="M2.16663 0.691406C1.06205 0.691406 0.166626 1.58683 0.166626 2.69141V22.6914C0.166626 23.7959 1.06205 24.6914 2.16663 24.6914H22.1666C23.2712 24.6914 24.1666 23.7959 24.1666 22.6914V2.69141C24.1666 1.58683 23.2712 0.691406 22.1666 0.691406H2.16663ZM7.52764 6.02837C7.53515 7.30337 6.58077 8.08899 5.44827 8.08337C4.38139 8.07774 3.45139 7.22837 3.45701 6.03025C3.46264 4.90337 4.35327 3.99774 5.51015 4.02399C6.68389 4.05025 7.53515 4.91087 7.52764 6.02837ZM12.5396 9.70709H9.17957H9.17769V21.1202H12.7289V20.8539C12.7289 20.3474 12.7285 19.8407 12.7281 19.3339C12.727 17.9822 12.7258 16.629 12.7328 15.2777C12.7346 14.9495 12.7496 14.6083 12.834 14.2951C13.1508 13.1251 14.2028 12.3695 15.3765 12.5553C16.1302 12.6733 16.6289 13.1102 16.8389 13.8209C16.9684 14.2651 17.0265 14.7433 17.0321 15.2065C17.0473 16.6033 17.0452 18.0001 17.043 19.397C17.0422 19.8901 17.0414 20.3834 17.0414 20.8765V21.1183H20.604V20.8446C20.604 20.2419 20.6037 19.6394 20.6033 19.0369C20.6026 17.5309 20.6018 16.0249 20.6058 14.5183C20.6077 13.8377 20.5346 13.1665 20.3677 12.5083C20.1184 11.5295 19.6028 10.7195 18.7646 10.1346C18.1702 9.71833 17.5177 9.45021 16.7884 9.42021C16.7053 9.41675 16.6216 9.41223 16.5374 9.40769C16.1645 9.38753 15.7854 9.36705 15.4289 9.43895C14.4089 9.64333 13.5128 10.1102 12.8358 10.9333C12.7572 11.0277 12.6802 11.1235 12.5654 11.2666L12.5396 11.299V9.70709ZM3.74215 21.1239H7.27652V9.71451H3.74215V21.1239Z" fill="#E2E2E2"/>
</svg>
