<svg width="32" height="42" viewBox="0 0 32 42" fill="none" xmlns="http://www.w3.org/2000/svg">
<path d="M16 0.636719C11.7491 0.651264 7.67626 2.35126 4.67641 5.36386C1.67824 8.3766 -0.00371746 12.4564 6.16952e-06 16.7074C6.16952e-06 23.0818 7.89828 33.871 12.6073 39.7348C13.4327 40.7638 14.68 41.3639 16 41.3639C17.32 41.3639 18.5673 40.7638 19.3927 39.7348C24.1017 33.871 32 23.0841 32 16.7074C32.0036 12.4565 30.3218 8.37674 27.3236 5.36386C24.3236 2.35112 20.2509 0.651148 16 0.636719ZM17.1236 37.913C16.8418 38.2403 16.4327 38.4294 16 38.4294C15.5672 38.4294 15.1581 38.2403 14.8763 37.913C7.38158 28.5821 2.90904 20.6549 2.90904 16.7074C2.90904 12.031 5.40359 7.70928 9.45424 5.37131C13.5049 3.03334 18.4943 3.03315 22.5451 5.37131C26.5959 7.70946 29.0903 12.0315 29.0903 16.7074C29.0903 20.6547 24.6176 28.5821 17.123 37.913H17.1236ZM16 7.90942C13.6854 7.90942 11.4654 8.82944 9.82898 10.4658C8.19263 12.1021 7.27262 14.3222 7.27262 16.6368C7.27262 18.9514 8.19263 21.1713 9.82898 22.8077C11.4653 24.4441 13.6853 25.3641 16 25.3641C18.3146 25.3641 20.5345 24.4441 22.1709 22.8077C23.8073 21.1714 24.7273 18.9514 24.7273 16.6368C24.7255 14.3222 23.8055 12.104 22.1691 10.4676C20.5328 8.83125 18.3146 7.91124 16 7.90942ZM16 22.4548C13.6472 22.4548 11.5254 21.0366 10.6254 18.864C9.72355 16.6894 10.2217 14.1857 11.8853 12.5222C13.549 10.8585 16.0526 10.3604 18.2271 11.2622C20.3999 12.1622 21.818 14.284 21.818 16.6368C21.818 18.1804 21.2053 19.6604 20.1144 20.7513C19.0234 21.8422 17.5436 22.4548 16 22.4548Z" fill="white"/>
</svg>
