<svg width="158" height="123" viewBox="0 0 158 123" fill="none" xmlns="http://www.w3.org/2000/svg">
<rect width="158" height="123" fill="#2A2A2A"/>
<path d="M23.1685 88V29.744H49.3045C53.8805 29.744 57.4885 30.536 60.1285 32.12C62.8271 33.704 64.7631 35.6987 65.9365 38.104C67.1098 40.4507 67.6965 42.7973 67.6965 45.144C67.6965 48.8987 66.9045 51.8027 65.3205 53.856C63.7365 55.8507 61.9178 57.3173 59.8645 58.256C61.5071 58.784 63.1498 59.6347 64.7925 60.808C66.4938 61.9227 67.9018 63.448 69.0165 65.384C70.1311 67.32 70.6885 69.7547 70.6885 72.688C70.6885 77.0293 69.0165 80.6667 65.6725 83.6C62.3871 86.5333 57.4298 88 50.8005 88H23.1685ZM29.7685 55.792H49.3045C51.3578 55.792 53.2645 55.44 55.0245 54.736C56.8431 54.032 58.3098 52.9467 59.4245 51.48C60.5391 49.9547 61.0965 48.0187 61.0965 45.672C61.0965 44.0293 60.7151 42.4747 59.9525 41.008C59.2485 39.5413 58.0751 38.3387 56.4325 37.4C54.8485 36.4613 52.7071 35.992 50.0085 35.992H29.7685V55.792ZM29.7685 81.752H51.5045C55.4938 81.752 58.5738 80.9307 60.7445 79.288C62.9738 77.5867 64.0885 75.2107 64.0885 72.16C64.0885 69.4027 63.0325 66.9973 60.9205 64.944C58.8085 62.832 55.4351 61.776 50.8005 61.776H29.7685V81.752ZM77.5621 105.424L85.5701 87.384L67.6181 44H74.9221L89.0901 80.08L103.522 44H110.738L84.6901 105.424H77.5621ZM114.44 88V49.808H105.464V44H114.44V28.248H121.04V44H131.16V49.808H121.04V88H114.44ZM128.749 88V79.024H137.285V88H128.749Z" fill="#FAFAFA"/>
</svg>
