<svg width="40" height="40" viewBox="0 0 40 40" fill="none" xmlns="http://www.w3.org/2000/svg">
<path d="M28.6051 40.007C26.6979 40.0053 24.8277 39.4796 23.1986 38.4873C14.3415 33.0993 6.90656 25.6643 1.51816 16.8069C0.30341 14.8154 -0.203729 12.4735 0.0742529 10.1586C0.353934 7.84197 1.40356 5.6889 3.0564 4.04085L6.01663 1.08061C6.7647 0.332544 7.7958 -0.0599948 8.85217 -0.00103427C9.90855 0.059617 10.8891 0.566747 11.5479 1.39401L16.7016 7.86198C17.9467 9.42045 17.7361 11.6832 16.2265 12.9856L13.359 15.4673C12.9799 15.7925 12.8957 16.3468 13.1585 16.7713C15.6824 20.8722 19.1343 24.3228 23.2353 26.8464C23.6598 27.1109 24.2124 27.025 24.5376 26.6459L27.0193 23.7783C28.32 22.2671 30.5844 22.0564 32.1429 23.3032L38.6126 28.457H38.6109C39.4331 29.1208 39.9352 30.0997 39.9942 31.1544C40.0531 32.2074 39.6639 33.2368 38.9243 33.9882L35.964 36.9485C34.0147 38.9062 31.3662 40.0047 28.605 40.0064L28.6051 40.007ZM3.8231 15.4087C8.98722 23.8952 16.1104 31.0201 24.5969 36.1842C26.0728 37.0839 27.8081 37.4613 29.5251 37.2541C31.2402 37.0469 32.8374 36.2685 34.0573 35.0436L37.0176 32.0817C37.2231 31.8778 37.3309 31.5948 37.3158 31.305C37.2989 31.0152 37.1608 30.7473 36.9333 30.5654L30.4619 25.4116L30.4636 25.4133C30.0356 25.0713 29.4139 25.1286 29.0568 25.543L26.575 28.4106H26.5767C25.3889 29.7887 23.3755 30.1005 21.8254 29.1468C17.3638 26.3989 13.6084 22.6435 10.8605 18.182C9.9035 16.6319 10.2152 14.6169 11.5951 13.4289L14.4626 10.9472V10.9488C14.8771 10.59 14.9344 9.9683 14.5923 9.54203L9.4403 3.07233C9.2634 2.83983 8.99381 2.69493 8.70069 2.67808C8.40921 2.66124 8.1245 2.77412 7.9223 2.98809L4.96206 5.94832C3.73722 7.16812 2.95883 8.76532 2.75326 10.4806C2.54603 12.1974 2.92339 13.9327 3.8231 15.4087Z" fill="black"/>
</svg>
