<svg width="263" height="195" viewBox="0 0 263 195" fill="none" xmlns="http://www.w3.org/2000/svg">
<g clip-path="url(#clip0_61_9613)">
<path d="M0.498535 16C0.498535 7.16344 7.66198 0 16.4985 0H262.499V195H16.4985C7.66198 195 0.498535 187.837 0.498535 179V16Z" fill="white" fill-opacity="0.75"/>
<path d="M40.332 39.0273L37.0827 35.778C38.6939 33.886 39.2063 31.2936 38.4366 28.9307C37.6663 26.5685 35.7246 24.7756 33.3082 24.197C30.8918 23.6176 28.3484 24.3359 26.5913 26.0925C24.8348 27.8498 24.1166 30.393 24.695 32.8094C25.2744 35.2258 27.0673 37.1684 29.4295 37.9378C31.7917 38.7075 34.3848 38.1951 36.276 36.5839L39.5254 39.8332C39.7484 40.0556 40.1097 40.0556 40.332 39.8332C40.5551 39.6102 40.5551 39.2489 40.332 39.0266L40.332 39.0273ZM31.6627 37.1503C30.0751 37.1503 28.553 36.5197 27.43 35.3973C26.3076 34.2743 25.677 32.7522 25.677 31.1646C25.677 29.5769 26.3076 28.0548 27.43 26.9318C28.553 25.8095 30.0751 25.1788 31.6627 25.1788C33.2504 25.1788 34.7725 25.8095 35.8955 26.9318C37.0178 28.0548 37.6485 29.5769 37.6485 31.1646C37.6463 32.7515 37.0157 34.2729 35.8934 35.3952C34.771 36.5174 33.2496 37.1482 31.6627 37.1503Z" fill="#2A2A2A"/>
<line x1="15.4985" y1="52.5" x2="262.499" y2="52.5" stroke="#D9D9D9"/>
<rect x="24.4985" y="66" width="118" height="14" fill="#D9D9D9"/>
<rect x="24.4985" y="88" width="168" height="14" fill="#D9D9D9"/>
<rect x="24.4985" y="110" width="219" height="14" fill="#D9D9D9"/>
<rect x="24.4985" y="132" width="103" height="14" fill="#D9D9D9"/>
<rect x="24.4985" y="154" width="219" height="14" fill="#D9D9D9"/>
</g>
<path d="M0.998535 16C0.998535 7.43959 7.93812 0.5 16.4985 0.5H261.999V194.5H16.4985C7.93813 194.5 0.998535 187.56 0.998535 179V16Z" stroke="black"/>
<defs>
<clipPath id="clip0_61_9613">
<path d="M0.498535 16C0.498535 7.16344 7.66198 0 16.4985 0H262.499V195H16.4985C7.66198 195 0.498535 187.837 0.498535 179V16Z" fill="white"/>
</clipPath>
</defs>
</svg>
