<svg width="128" height="24" viewBox="0 0 128 24" fill="none" xmlns="http://www.w3.org/2000/svg">
<path d="M11.0489 2.92705C11.3483 2.00574 12.6517 2.00574 12.9511 2.92705L14.4697 7.60081C14.6035 8.01284 14.9875 8.2918 15.4207 8.2918H20.335C21.3037 8.2918 21.7065 9.53141 20.9228 10.1008L16.947 12.9894C16.5966 13.244 16.4499 13.6954 16.5838 14.1074L18.1024 18.7812C18.4017 19.7025 17.3472 20.4686 16.5635 19.8992L12.5878 17.0106C12.2373 16.756 11.7627 16.756 11.4122 17.0106L7.43648 19.8992C6.65276 20.4686 5.59828 19.7025 5.89763 18.7812L7.41623 14.1074C7.5501 13.6954 7.40345 13.244 7.05296 12.9894L3.07722 10.1008C2.29351 9.53141 2.69628 8.2918 3.66501 8.2918H8.57929C9.01252 8.2918 9.39647 8.01284 9.53035 7.60081L11.0489 2.92705Z" fill="#E6BD7B"/>
<path d="M37.0489 2.92705C37.3483 2.00574 38.6517 2.00574 38.9511 2.92705L40.4697 7.60081C40.6035 8.01284 40.9875 8.2918 41.4207 8.2918H46.335C47.3037 8.2918 47.7065 9.53141 46.9228 10.1008L42.947 12.9894C42.5966 13.244 42.4499 13.6954 42.5838 14.1074L44.1024 18.7812C44.4017 19.7025 43.3472 20.4686 42.5635 19.8992L38.5878 17.0106C38.2373 16.756 37.7627 16.756 37.4122 17.0106L33.4365 19.8992C32.6528 20.4686 31.5983 19.7025 31.8976 18.7812L33.4162 14.1074C33.5501 13.6954 33.4034 13.244 33.053 12.9894L29.0772 10.1008C28.2935 9.53141 28.6963 8.2918 29.665 8.2918H34.5793C35.0125 8.2918 35.3965 8.01284 35.5303 7.60081L37.0489 2.92705Z" fill="#E6BD7B"/>
<path d="M63.0489 2.92705C63.3483 2.00574 64.6517 2.00574 64.9511 2.92705L66.4697 7.60081C66.6035 8.01284 66.9875 8.2918 67.4207 8.2918H72.335C73.3037 8.2918 73.7065 9.53141 72.9228 10.1008L68.947 12.9894C68.5966 13.244 68.4499 13.6954 68.5838 14.1074L70.1024 18.7812C70.4017 19.7025 69.3472 20.4686 68.5635 19.8992L64.5878 17.0106C64.2373 16.756 63.7627 16.756 63.4122 17.0106L59.4365 19.8992C58.6528 20.4686 57.5983 19.7025 57.8976 18.7812L59.4162 14.1074C59.5501 13.6954 59.4034 13.244 59.053 12.9894L55.0772 10.1008C54.2935 9.53141 54.6963 8.2918 55.665 8.2918H60.5793C61.0125 8.2918 61.3965 8.01284 61.5303 7.60081L63.0489 2.92705Z" fill="#E6BD7B"/>
<path d="M89.0489 2.92705C89.3483 2.00574 90.6517 2.00574 90.9511 2.92705L92.4697 7.60081C92.6035 8.01284 92.9875 8.2918 93.4207 8.2918H98.335C99.3037 8.2918 99.7065 9.53141 98.9228 10.1008L94.947 12.9894C94.5966 13.244 94.4499 13.6954 94.5838 14.1074L96.1024 18.7812C96.4017 19.7025 95.3472 20.4686 94.5635 19.8992L90.5878 17.0106C90.2373 16.756 89.7627 16.756 89.4122 17.0106L85.4365 19.8992C84.6528 20.4686 83.5983 19.7025 83.8976 18.7812L85.4162 14.1074C85.5501 13.6954 85.4034 13.244 85.053 12.9894L81.0772 10.1008C80.2935 9.53141 80.6963 8.2918 81.665 8.2918H86.5793C87.0125 8.2918 87.3965 8.01284 87.5303 7.60081L89.0489 2.92705Z" fill="#E6BD7B"/>
<path d="M115.049 2.92705C115.348 2.00574 116.652 2.00574 116.951 2.92705L118.47 7.60081C118.604 8.01284 118.987 8.2918 119.421 8.2918H124.335C125.304 8.2918 125.706 9.53141 124.923 10.1008L120.947 12.9894C120.597 13.244 120.45 13.6954 120.584 14.1074L122.102 18.7812C122.402 19.7025 121.347 20.4686 120.564 19.8992L116.588 17.0106C116.237 16.756 115.763 16.756 115.412 17.0106L111.436 19.8992C110.653 20.4686 109.598 19.7025 109.898 18.7812L111.416 14.1074C111.55 13.6954 111.403 13.244 111.053 12.9894L107.077 10.1008C106.294 9.53141 106.696 8.2918 107.665 8.2918H112.579C113.013 8.2918 113.396 8.01284 113.53 7.60081L115.049 2.92705Z" fill="#E6BD7B"/>
</svg>
