<svg width="46" height="88" viewBox="0 0 46 88" fill="none" xmlns="http://www.w3.org/2000/svg">
<path d="M19.6935 33.2555C19.7285 33.2555 19.7654 33.2555 19.8003 33.2555C19.7944 33.237 19.7884 33.2179 19.7845 33.1981L30.7742 26.962C40.2749 21.5708 43.6055 9.49921 38.2145 0L9.69252 16.1855L9.33 16.4017C5.714 19.2878 4.95797 33.2555 19.6935 33.2555Z" fill="url(#paint0_linear_36_1302)"/>
<path d="M36.0241 57.6873C33.903 54.7676 29.8111 52.1023 26.0903 53.3954L12.934 60.9853C3.47218 66.4437 0.227271 78.539 5.6862 88L36.5619 70.1879L37.1756 69.8037C38.9216 65.985 38.5024 61.0986 36.0241 57.6873Z" fill="url(#paint1_linear_36_1302)"/>
<path d="M45.1141 47.9791C42.7392 39.6096 35.587 33.958 26.895 33.5797L19.843 33.2726C19.8292 33.2726 19.8153 33.2713 19.8034 33.2706C19.8015 33.266 19.8008 33.2607 19.7995 33.2555C19.7646 33.2555 19.7276 33.2555 19.6927 33.2555C4.95783 33.2555 5.71385 19.2871 9.32853 16.4017C1.91989 21.0343 -1.56165 29.823 0.665559 38.2723C2.89211 46.721 10.254 52.6526 18.9828 53.0323L26.0355 53.3387C26.0494 53.3394 26.0626 53.34 26.0744 53.3407C26.081 53.3578 26.0863 53.3763 26.0909 53.3948C29.8117 52.1017 33.9036 54.7669 36.0247 57.6866C38.5024 61.098 38.9216 65.9843 37.1768 69.8023C44.3739 64.9147 47.4903 56.3494 45.1141 47.9791Z" fill="url(#paint2_linear_36_1302)"/>
<defs>
<linearGradient id="paint0_linear_36_1302" x1="51.9574" y1="5.9188" x2="-2.83337" y2="31.4902" gradientUnits="userSpaceOnUse">
<stop offset="0.0256" stop-color="#DC3636"/>
<stop offset="0.7785" stop-color="#FF725C"/>
</linearGradient>
<linearGradient id="paint1_linear_36_1302" x1="43.697" y1="56.7944" x2="10.7218" y2="73.2835" gradientUnits="userSpaceOnUse">
<stop offset="0.0256" stop-color="#DC3636"/>
<stop offset="0.7785" stop-color="#FF725C"/>
</linearGradient>
<linearGradient id="paint2_linear_36_1302" x1="0.129553" y1="26.5948" x2="45.9438" y2="59.7938" gradientUnits="userSpaceOnUse">
<stop offset="0.0256" stop-color="#FF725C"/>
<stop offset="0.7785" stop-color="#FF725C"/>
</linearGradient>
</defs>
</svg>
