<svg width="25" height="25" viewBox="0 0 25 25" fill="none" xmlns="http://www.w3.org/2000/svg">
<path fill-rule="evenodd" clip-rule="evenodd" d="M12.03 0.804688C5.39895 0.804688 0 6.19151 0 12.8076C0 19.4237 5.39895 24.8047 12.03 24.8047C18.661 24.8047 24.0541 19.4237 24.0541 12.8076C24.0541 6.19151 18.661 0.804688 12.03 0.804688ZM12.03 2.80485C17.5776 2.80485 22.0494 7.27248 22.0494 12.8076C22.0494 18.3428 17.5776 22.8045 12.03 22.8045C6.48236 22.8045 2.00467 18.3428 2.00467 12.8076C2.00467 7.27248 6.48236 2.80485 12.03 2.80485ZM17.0181 7.98691C16.8859 7.99652 16.757 8.0322 16.6387 8.09188C16.5204 8.15156 16.4151 8.23405 16.329 8.33459L10.4462 15.1476L7.68782 12.3056C7.59558 12.2113 7.48556 12.1361 7.36409 12.0843C7.24262 12.0326 7.1121 12.0053 6.98002 12.004C6.84794 12.0027 6.71691 12.0275 6.59447 12.0769C6.47203 12.1264 6.36059 12.1995 6.26655 12.292C6.07773 12.4773 5.97012 12.7297 5.96721 12.9939C5.96429 13.2582 6.06633 13.5129 6.25101 13.7023L9.76701 17.3256C9.8639 17.4255 9.98059 17.5041 10.1096 17.5565C10.2387 17.6089 10.3773 17.6339 10.5165 17.6298C10.6558 17.6258 10.7927 17.5928 10.9184 17.533C11.0442 17.4733 11.1561 17.388 11.247 17.2826L17.8464 9.63359C18.02 9.43283 18.1066 9.17148 18.0872 8.90702C18.0677 8.64256 17.9438 8.39663 17.7426 8.22332C17.5418 8.05246 17.2814 7.96746 17.0181 7.98691Z" fill="white"/>
</svg>
