<svg width="25" height="28" viewBox="0 0 25 28" fill="none" xmlns="http://www.w3.org/2000/svg">
<path d="M21.1779 5.92211C20.991 5.82551 20.809 5.71962 20.6327 5.60483C20.1201 5.2659 19.65 4.86653 19.2327 4.41533C18.1886 3.22064 17.7986 2.00865 17.655 1.16008H17.6607C17.5407 0.455724 17.5904 0 17.5979 0H12.8422V18.3893C12.8422 18.6362 12.8422 18.8803 12.8318 19.1214C12.8318 19.1514 12.8289 19.1791 12.8272 19.2114C12.8272 19.2246 12.8272 19.2385 12.8243 19.2523C12.8243 19.2558 12.8243 19.2593 12.8243 19.2627C12.7742 19.9225 12.5627 20.5599 12.2084 21.1188C11.8541 21.6777 11.3679 22.1409 10.7926 22.4678C10.1929 22.8089 9.51475 22.9879 8.82487 22.987C6.60913 22.987 4.81335 21.1802 4.81335 18.9489C4.81335 16.7176 6.60913 14.9108 8.82487 14.9108C9.2443 14.9104 9.66115 14.9764 10.0599 15.1064L10.0657 10.2642C8.85508 10.1078 7.62518 10.204 6.45359 10.5468C5.282 10.8895 4.19416 11.4713 3.25869 12.2555C2.439 12.9677 1.74989 13.8175 1.22236 14.7666C1.02161 15.1127 0.264181 16.5036 0.172459 18.7608C0.114773 20.0421 0.499542 21.3694 0.682986 21.918V21.9296C0.798359 22.2526 1.24543 23.355 1.97401 24.2843C2.56151 25.0298 3.25563 25.6846 4.034 26.2278V26.2163L4.04554 26.2278C6.34781 27.7923 8.90044 27.6896 8.90044 27.6896C9.34232 27.6717 10.8226 27.6896 12.5035 26.8929C14.368 26.0097 15.4294 24.6939 15.4294 24.6939C16.1075 23.9077 16.6467 23.0117 17.0239 22.0444C17.4542 20.9131 17.5979 19.5563 17.5979 19.0141V9.25812C17.6555 9.29274 18.4239 9.80095 18.4239 9.80095C18.4239 9.80095 19.5309 10.5105 21.2581 10.9726C22.4972 11.3014 24.1666 11.3706 24.1666 11.3706V6.64954C23.5817 6.71299 22.3939 6.52839 21.1779 5.92211Z" fill="#E2E2E2"/>
</svg>
